HIERARCHY
ROOT mixamorig:Hips
{
	OFFSET 0.000000 201.639420 0.000000
	CHANNELS 6 Xposition Yposition Zposition Xrotation Yrotation Zrotation
	JOINT mixamorig:Spine
	{
		OFFSET 0.006200 19.524994 -2.481800
		CHANNELS 3 Xrotation Yrotation Zrotation
		JOINT mixamorig:Spine1
		{
			OFFSET -0.000900 22.835007 -2.825400
			CHANNELS 3 Xrotation Yrotation Zrotation
			JOINT mixamorig:Spine2
			{
				OFFSET -0.020600 26.552490 -3.193300
				CHANNELS 3 Xrotation Yrotation Zrotation
				JOINT mixamorig:Neck
				{
					OFFSET -0.060000 30.701813 1.352200
					CHANNELS 3 Xrotation Yrotation Zrotation
					JOINT mixamorig:Head
					{
						OFFSET -0.087200 22.547607 3.670900
						CHANNELS 3 Xrotation Yrotation Zrotation
						JOINT mixamorig:HeadTop_End
						{
							OFFSET -0.830600 40.355194 7.893500
							CHANNELS 3 Xrotation Yrotation Zrotation
							End Site
							{
								OFFSET 0.000000 30.592346 0.000000
							}
						}
						JOINT mixamorig:RightEye
						{
							OFFSET -6.302100 18.118591 16.197100
							CHANNELS 3 Xrotation Yrotation Zrotation
							End Site
							{
								OFFSET 0.000000 30.592346 0.000000
							}
						}
						JOINT mixamorig:LeftEye
						{
							OFFSET 6.741500 18.382690 16.401899
							CHANNELS 3 Xrotation Yrotation Zrotation
							End Site
							{
								OFFSET 0.000000 30.592346 0.000000
							}
						}
					}
				}
				JOINT mixamorig:LeftShoulder
				{
					OFFSET 11.924900 18.230499 1.425400
					CHANNELS 3 Xrotation Yrotation Zrotation
					JOINT mixamorig:LeftArm
					{
						OFFSET 25.435989 -0.697632 -5.229300
						CHANNELS 3 Xrotation Yrotation Zrotation
						JOINT mixamorig:LeftForeArm
						{
							OFFSET 54.684776 0.000000 0.000000
							CHANNELS 3 Xrotation Yrotation Zrotation
							JOINT mixamorig:LeftHand
							{
								OFFSET 55.098175 0.000000 0.000000
								CHANNELS 3 Xrotation Yrotation Zrotation
								JOINT mixamorig:LeftHandMiddle1
								{
									OFFSET 23.369751 0.000000 0.000000
									CHANNELS 3 Xrotation Yrotation Zrotation
									JOINT mixamorig:LeftHandMiddle2
									{
										OFFSET 6.378677 0.000000 0.000000
										CHANNELS 3 Xrotation Yrotation Zrotation
										JOINT mixamorig:LeftHandMiddle3
										{
											OFFSET 6.148331 0.000000 0.000000
											CHANNELS 3 Xrotation Yrotation Zrotation
											JOINT mixamorig:LeftHandMiddle4
											{
												OFFSET 6.582504 0.000000 0.000000
												CHANNELS 3 Xrotation Yrotation Zrotation
												End Site
												{
													OFFSET -1.168900 6.395691 1.028606
												}
											}
										}
									}
								}
								JOINT mixamorig:LeftHandThumb1
								{
									OFFSET 7.235672 -3.848206 5.434273
									CHANNELS 3 Xrotation Yrotation Zrotation
									JOINT mixamorig:LeftHandThumb2
									{
										OFFSET 6.568451 -3.792297 3.792300
										CHANNELS 3 Xrotation Yrotation Zrotation
										JOINT mixamorig:LeftHandThumb3
										{
											OFFSET 6.063080 -3.500519 3.500518
											CHANNELS 3 Xrotation Yrotation Zrotation
											JOINT mixamorig:LeftHandThumb4
											{
												OFFSET 4.793182 -2.767334 2.767349
												CHANNELS 3 Xrotation Yrotation Zrotation
												End Site
												{
													OFFSET 0.101639 6.054260 1.275483
												}
											}
										}
									}
								}
								JOINT mixamorig:LeftHandIndex1
								{
									OFFSET 23.101074 -0.309540 4.992809
									CHANNELS 3 Xrotation Yrotation Zrotation
									JOINT mixamorig:LeftHandIndex2
									{
										OFFSET 6.226883 0.000000 0.000000
										CHANNELS 3 Xrotation Yrotation Zrotation
										JOINT mixamorig:LeftHandIndex3
										{
											OFFSET 6.094330 0.000000 0.000000
											CHANNELS 3 Xrotation Yrotation Zrotation
											JOINT mixamorig:LeftHandIndex4
											{
												OFFSET 5.482605 0.000000 0.000000
												CHANNELS 3 Xrotation Yrotation Zrotation
												End Site
												{
													OFFSET -1.427902 5.233032 0.797164
												}
											}
										}
									}
								}
								JOINT mixamorig:LeftHandRing1
								{
									OFFSET 22.299240 0.021149 -3.964172
									CHANNELS 3 Xrotation Yrotation Zrotation
									JOINT mixamorig:LeftHandRing2
									{
										OFFSET 6.321869 0.000000 0.000000
										CHANNELS 3 Xrotation Yrotation Zrotation
										JOINT mixamorig:LeftHandRing3
										{
											OFFSET 5.899796 0.000000 0.000000
											CHANNELS 3 Xrotation Yrotation Zrotation
											JOINT mixamorig:LeftHandRing4
											{
												OFFSET 6.517899 0.000000 0.000000
												CHANNELS 3 Xrotation Yrotation Zrotation
												End Site
												{
													OFFSET -1.637299 6.232208 0.980890
												}
											}
										}
									}
								}
								JOINT mixamorig:LeftHandPinky1
								{
									OFFSET 20.463791 -0.302338 -8.562233
									CHANNELS 3 Xrotation Yrotation Zrotation
									JOINT mixamorig:LeftHandPinky2
									{
										OFFSET 6.908646 0.000000 0.000000
										CHANNELS 3 Xrotation Yrotation Zrotation
										JOINT mixamorig:LeftHandPinky3
										{
											OFFSET 4.622849 0.000000 0.000000
											CHANNELS 3 Xrotation Yrotation Zrotation
											JOINT mixamorig:LeftHandPinky4
											{
												OFFSET 5.216080 0.000000 0.000000
												CHANNELS 3 Xrotation Yrotation Zrotation
												End Site
												{
													OFFSET -0.606308 5.116241 0.814926
												}
											}
										}
									}
								}
							}
						}
					}
				}
				JOINT mixamorig:RightShoulder
				{
					OFFSET -12.001300 18.284088 1.348900
					CHANNELS 3 Xrotation Yrotation Zrotation
					JOINT mixamorig:RightArm
					{
						OFFSET -25.308500 -0.751312 -5.164599
						CHANNELS 3 Xrotation Yrotation Zrotation
						JOINT mixamorig:RightForeArm
						{
							OFFSET -54.684429 0.000000 0.000000
							CHANNELS 3 Xrotation Yrotation Zrotation
							JOINT mixamorig:RightHand
							{
								OFFSET -55.150291 0.000000 0.000000
								CHANNELS 3 Xrotation Yrotation Zrotation
								JOINT mixamorig:RightHandMiddle1
								{
									OFFSET -23.317566 0.000000 0.000000
									CHANNELS 3 Xrotation Yrotation Zrotation
									JOINT mixamorig:RightHandMiddle2
									{
										OFFSET -6.378403 0.000000 0.000000
										CHANNELS 3 Xrotation Yrotation Zrotation
										JOINT mixamorig:RightHandMiddle3
										{
											OFFSET -6.148193 0.000000 0.000000
											CHANNELS 3 Xrotation Yrotation Zrotation
											JOINT mixamorig:RightHandMiddle4
											{
												OFFSET -6.583389 0.000000 0.000000
												CHANNELS 3 Xrotation Yrotation Zrotation
												End Site
												{
													OFFSET 1.171692 6.395905 1.029786
												}
											}
										}
									}
								}
								JOINT mixamorig:RightHandThumb1
								{
									OFFSET -7.190521 -3.860474 5.435846
									CHANNELS 3 Xrotation Yrotation Zrotation
									JOINT mixamorig:RightHandThumb2
									{
										OFFSET -6.567429 -3.791718 3.791708
										CHANNELS 3 Xrotation Yrotation Zrotation
										JOINT mixamorig:RightHandThumb3
										{
											OFFSET -6.062469 -3.500153 3.500166
											CHANNELS 3 Xrotation Yrotation Zrotation
											JOINT mixamorig:RightHandThumb4
											{
												OFFSET -4.792618 -2.767029 2.767022
												CHANNELS 3 Xrotation Yrotation Zrotation
												End Site
												{
													OFFSET -0.100327 6.053253 1.276754
												}
											}
										}
									}
								}
								JOINT mixamorig:RightHandIndex1
								{
									OFFSET -23.048981 -0.310791 4.992554
									CHANNELS 3 Xrotation Yrotation Zrotation
									JOINT mixamorig:RightHandIndex2
									{
										OFFSET -6.227539 0.000000 0.000000
										CHANNELS 3 Xrotation Yrotation Zrotation
										JOINT mixamorig:RightHandIndex3
										{
											OFFSET -6.095047 0.000000 0.000000
											CHANNELS 3 Xrotation Yrotation Zrotation
											JOINT mixamorig:RightHandIndex4
											{
												OFFSET -5.484772 0.000000 0.000000
												CHANNELS 3 Xrotation Yrotation Zrotation
												End Site
												{
													OFFSET 1.420593 5.237305 0.797056
												}
											}
										}
									}
								}
								JOINT mixamorig:RightHandRing1
								{
									OFFSET -22.246323 0.020569 -3.963762
									CHANNELS 3 Xrotation Yrotation Zrotation
									JOINT mixamorig:RightHandRing2
									{
										OFFSET -6.322128 0.000000 0.000000
										CHANNELS 3 Xrotation Yrotation Zrotation
										JOINT mixamorig:RightHandRing3
										{
											OFFSET -5.900024 0.000000 0.000000
											CHANNELS 3 Xrotation Yrotation Zrotation
											JOINT mixamorig:RightHandRing4
											{
												OFFSET -6.518356 0.000000 0.000000
												CHANNELS 3 Xrotation Yrotation Zrotation
												End Site
												{
													OFFSET 1.636398 6.232697 0.982186
												}
											}
										}
									}
								}
								JOINT mixamorig:RightHandPinky1
								{
									OFFSET -20.411011 -0.303314 -8.561701
									CHANNELS 3 Xrotation Yrotation Zrotation
									JOINT mixamorig:RightHandPinky2
									{
										OFFSET -6.907349 0.000000 0.000000
										CHANNELS 3 Xrotation Yrotation Zrotation
										JOINT mixamorig:RightHandPinky3
										{
											OFFSET -4.623840 0.000000 0.000000
											CHANNELS 3 Xrotation Yrotation Zrotation
											JOINT mixamorig:RightHandPinky4
											{
												OFFSET -5.218353 0.000000 0.000000
												CHANNELS 3 Xrotation Yrotation Zrotation
												End Site
												{
													OFFSET 0.602097 5.118835 0.816273
												}
											}
										}
									}
								}
							}
						}
					}
				}
			}
		}
	}
	JOINT mixamorig:LeftUpLeg
	{
		OFFSET 18.168400 -13.561905 -0.039000
		CHANNELS 3 Xrotation Yrotation Zrotation
		JOINT mixamorig:LeftLeg
		{
			OFFSET 0.577358 -80.825211 -3.695000
			CHANNELS 3 Xrotation Yrotation Zrotation
			JOINT mixamorig:LeftFoot
			{
				OFFSET -0.577356 -83.370262 -6.520700
				CHANNELS 3 Xrotation Yrotation Zrotation
				JOINT mixamorig:LeftToeBase
				{
					OFFSET 0.750401 -20.798306 25.135401
					CHANNELS 3 Xrotation Yrotation Zrotation
					JOINT mixamorig:LeftToe_End
					{
						OFFSET -0.000500 0.001200 19.917799
						CHANNELS 3 Xrotation Yrotation Zrotation
						End Site
						{
							OFFSET 0.000000 19.917805 0.000000
						}
					}
				}
			}
		}
	}
	JOINT mixamorig:RightUpLeg
	{
		OFFSET -18.162500 -13.585098 -0.041000
		CHANNELS 3 Xrotation Yrotation Zrotation
		JOINT mixamorig:RightLeg
		{
			OFFSET -0.595024 -80.945297 -3.631900
			CHANNELS 3 Xrotation Yrotation Zrotation
			JOINT mixamorig:RightFoot
			{
				OFFSET 0.595024 -83.218193 -6.561200
				CHANNELS 3 Xrotation Yrotation Zrotation
				JOINT mixamorig:RightToeBase
				{
					OFFSET -0.753601 -20.807106 25.115000
					CHANNELS 3 Xrotation Yrotation Zrotation
					JOINT mixamorig:RightToe_End
					{
						OFFSET 0.000299 0.001700 19.918200
						CHANNELS 3 Xrotation Yrotation Zrotation
						End Site
						{
							OFFSET 0.000000 19.918203 0.000000
						}
					}
				}
			}
		}
	}
}
MOTION
Frames: 4
Frame Time: 0.033333
34.515144 169.225372 31.835455 48.767581 -46.646900 43.194150 8.331244 -1.327011 0.850163 16.514598 -2.514848 1.224459 16.487392 -2.712454 1.263843 -11.276928 -8.540102 -7.406861 -35.848384 -51.183180 13.170882 0.000001 0.000001 0.000001 0.000001 0.000001 0.000001 0.000001 0.000001 0.000001 0.845522 2.620219 -11.137223 -9.206875 -1.727539 -26.320906 0.000017 -47.116161 -0.000008 -44.391821 -4.678598 7.976328 -1.707149 -7.244613 -12.644049 0.669505 2.966493 -25.430317 0.111048 1.234199 -10.283670 0.000001 -0.000000 0.000000 -17.962014 -0.741421 -8.361057 3.654497 4.724028 0.483164 -5.614913 5.981696 9.906702 0.000001 0.000002 -0.000001 -0.996901 -2.630672 -15.865401 0.375349 2.246452 -18.969129 0.047692 0.810817 -6.734682 -0.000003 -0.000000 -0.000000 -1.541636 -3.658827 -18.361051 0.844813 3.309623 -28.632315 0.036214 0.706837 -5.867658 -0.000000 -0.000000 0.000002 1.769449 6.222292 -19.071862 0.266196 -2.153234 -16.476129 0.075649 1.019931 -8.483295 0.000000 0.000001 0.000001 2.771164 6.306177 6.739780 -20.641165 -18.805189 34.532559 0.000004 64.535664 -0.000008 -12.197795 18.478117 9.982006 -0.381811 -1.888947 37.847174 7.169471 -6.944744 91.829073 0.944600 -3.504198 30.164253 0.000003 -0.000003 0.000000 -11.876341 17.384005 -0.713518 6.173287 -26.408619 -1.335795 2.266358 -9.400982 -2.157241 -0.000001 -0.000002 0.000002 -2.539178 -0.320735 45.131359 5.901657 -6.869322 81.316004 0.720093 -3.086386 26.260018 0.000002 0.000003 0.000002 2.313671 -5.197404 44.914853 6.073602 -6.893242 82.751007 0.340173 -2.152203 17.961307 -0.000001 -0.000000 0.000000 2.814703 -5.589819 53.426976 6.279488 -6.916134 84.463438 1.035024 -3.655035 31.612366 0.000002 0.000000 0.000001 -70.994222 1.433576 30.443850 53.205900 10.660533 -9.540221 -0.272260 9.243987 -11.819136 -0.286015 -0.000002 -0.000004 -0.000000 -0.000001 0.000000 -78.234728 4.084079 -24.165040 58.445492 -4.794473 4.005993 -14.719823 30.270948 13.837965 -2.194713 0.000009 0.000001 0.000000 0.000004 0.000000 
33.968536 168.989212 31.247314 49.092552 -46.788090 43.557148 8.306167 -1.381306 0.933383 16.491415 -2.610297 1.387930 16.462769 -2.810554 1.426769 -11.391214 -8.551209 -7.590703 -36.646659 -51.536806 12.627327 0.000000 -0.000005 -0.000000 0.000000 -0.000005 -0.000000 0.000000 -0.000005 -0.000000 0.818816 2.773537 -11.205916 -8.464753 -1.980535 -26.653562 0.000012 -46.936800 -0.000015 -44.486989 -4.606045 7.817262 -1.756763 -7.285286 -12.906646 0.675831 2.979764 -25.552433 0.111384 1.235993 -10.298867 -0.000001 -0.000000 0.000000 -18.050686 -0.789395 -8.358525 3.654489 4.724053 0.483148 -5.611429 5.984262 9.902506 -0.000001 0.000001 0.000001 -0.963522 -2.640742 -15.431177 0.384512 2.272938 -19.201757 0.047923 0.812641 -6.749836 -0.000000 0.000000 -0.000000 -1.588416 -3.590390 -18.981007 0.901378 3.411017 -29.597061 0.036007 0.704644 -5.849449 -0.000003 -0.000001 0.000002 1.775074 6.005913 -20.218280 0.272232 -2.132993 -16.650768 0.073463 1.005345 -8.361038 0.000000 0.000000 0.000001 2.773087 6.323087 6.701556 -20.315312 -18.351733 34.687782 -0.000002 64.225724 -0.000023 -12.462549 18.014860 10.445986 -0.310225 -1.965185 37.643047 7.163445 -6.944932 91.779267 0.944780 -3.504498 30.167197 0.000003 0.000000 0.000003 -11.946291 17.802135 -0.645823 6.173290 -26.408595 -1.335811 1.898752 -8.435247 -2.158400 -0.000002 0.000002 0.000002 -2.605999 -0.222069 44.946425 5.904507 -6.869745 81.339937 0.698237 -3.041734 25.851072 -0.000002 -0.000001 0.000000 2.343877 -5.228933 44.788542 6.073211 -6.893189 82.747633 0.338688 -2.147628 17.921797 0.000001 0.000002 -0.000001 2.795650 -5.575695 53.231079 6.276805 -6.915870 84.441198 1.032326 -3.650660 31.569985 0.000001 0.000000 0.000001 -70.961110 1.576722 31.154200 53.183258 10.674444 -9.889434 -0.145690 8.965882 -11.779223 -0.285285 0.000015 0.000002 -0.000000 -0.000000 0.000000 -78.868577 3.944053 -24.016219 59.486064 -5.908848 4.371449 -14.227208 30.304122 13.284021 -2.523966 0.000033 -0.000001 -0.000000 -0.000002 0.000000 
33.584579 168.731445 30.786283 49.266277 -46.828323 43.757586 8.274757 -1.415385 1.001064 16.456967 -2.665029 1.519104 16.427237 -2.868382 1.557161 -11.534759 -8.526818 -7.852655 -37.632864 -51.817111 11.975292 0.000001 0.000001 -0.000000 0.000001 0.000001 -0.000000 0.000001 0.000001 -0.000000 0.780497 2.985107 -11.285478 -7.841695 -2.337864 -26.888177 0.000015 -46.777452 0.000016 -44.622473 -4.555271 7.800782 -1.807209 -7.259829 -13.259022 0.683088 2.994887 -25.691611 0.110729 1.232356 -10.268186 -0.000000 0.000000 0.000000 -18.115615 -0.821971 -8.362159 3.654468 4.723857 0.483176 -5.608343 5.986490 9.898775 0.000004 -0.000001 -0.000000 -0.953367 -2.670034 -15.214632 0.388141 2.283212 -19.292086 0.047721 0.811097 -6.736996 0.000001 -0.000000 -0.000001 -1.661250 -3.603711 -19.588342 0.946916 3.489820 -30.353422 0.035864 0.703328 -5.838596 -0.000002 -0.000000 -0.000000 1.741425 5.744724 -21.210183 0.275927 -2.120714 -16.756886 0.071985 0.995254 -8.276582 -0.000002 0.000000 0.000001 2.779241 6.365490 6.624700 -19.997833 -18.013427 34.801265 -0.000051 64.048692 0.000056 -12.974364 17.454169 10.857636 -0.295915 -1.959242 37.341365 7.160913 -6.945004 91.758373 0.946460 -3.507396 30.194771 0.000002 0.000002 0.000000 -11.968149 18.067807 -0.668570 6.173278 -26.408592 -1.335810 1.472185 -7.307160 -2.157635 -0.000002 -0.000003 0.000003 -2.705853 -0.082003 44.725513 5.911156 -6.870749 81.395501 0.671704 -2.986456 25.346605 0.000002 -0.000002 -0.000002 2.353638 -5.241484 44.556299 6.069158 -6.892682 82.713926 0.337309 -2.143365 17.884931 -0.000001 0.000002 0.000001 2.774451 -5.559863 53.012578 6.277033 -6.915893 84.443159 1.028629 -3.644653 31.511867 -0.000002 0.000001 0.000001 -71.083637 1.686901 31.583532 53.255227 10.670081 -9.985816 -0.052690 8.734113 -11.762772 -0.283887 0.000016 0.000006 0.000000 -0.000001 0.000001 -79.399289 3.853824 -23.986364 60.377288 -6.734855 4.673199 -13.878556 30.326723 12.868560 -2.802044 -0.000019 -0.000003 0.000000 -0.000001 0.000000 
33.375824 168.510254 30.461697 49.271359 -46.730863 43.784654 8.250151 -1.413553 1.038195 16.428120 -2.654178 1.597088 16.398628 -2.856688 1.633906 -11.704103 -8.454513 -8.086366 -38.677497 -51.809311 11.257129 0.000000 -0.000001 0.000001 0.000000 -0.000001 0.000001 0.000000 -0.000001 0.000001 0.743931 3.176338 -11.339820 -7.620691 -2.737731 -27.125584 0.000022 -46.719785 0.000007 -44.658441 -4.573638 7.783269 -1.851698 -7.171244 -13.660926 0.694664 3.018799 -25.912428 0.109257 1.224215 -10.199516 -0.000002 0.000000 -0.000000 -18.131569 -0.829318 -8.364373 3.654428 4.723706 0.483164 -5.603748 5.989880 9.893220 -0.000003 0.000001 0.000000 -0.960654 -2.706966 -15.186644 0.389850 2.288200 -19.335741 0.047859 0.812083 -6.745272 0.000000 0.000000 0.000001 -1.737795 -3.642881 -20.136209 0.970196 3.529198 -30.733952 0.035998 0.704601 -5.849120 -0.000003 -0.000000 0.000002 1.685645 5.476228 -22.071104 0.277086 -2.116803 -16.790668 0.070983 0.988109 -8.216807 -0.000001 0.000000 0.000001 2.789904 6.415671 6.591832 -19.690291 -17.765703 34.827439 0.000000 63.805018 0.000003 -13.625323 16.867004 11.348919 -0.333999 -1.868896 36.864515 7.162747 -6.944943 91.773447 0.949978 -3.513400 30.252120 0.000002 -0.000000 -0.000000 -11.935296 18.188266 -0.801441 6.173273 -26.408604 -1.335803 0.946596 -5.906308 -2.153414 -0.000001 -0.000002 0.000001 -2.855395 0.123889 44.436562 5.925864 -6.872944 81.518403 0.627153 -2.890624 24.477381 -0.000001 -0.000001 -0.000003 2.350519 -5.243115 44.183527 6.064040 -6.892018 82.671312 0.335834 -2.138784 17.845485 -0.000001 0.000001 -0.000001 2.746344 -5.538688 52.722029 6.280924 -6.916287 84.475384 1.022295 -3.634309 31.412119 0.000000 0.000000 -0.000003 -71.286555 1.718488 31.727981 53.338935 10.674617 -9.983250 0.037755 8.572584 -11.713123 -0.290917 -0.000006 0.000003 -0.000000 0.000001 0.000000 -79.792073 3.833342 -24.070092 61.034605 -7.224436 4.878022 -13.710298 30.329602 12.589533 -3.001611 -0.000033 -0.000005 0.000000 0.000002 0.000000 
